solid exported
	facet normal 1 0 0
		outer loop
			vertex 5 5 5
			vertex 5 -5 5
			vertex 5 5 -5
		endloop
	endfacet
	facet normal 1 0 0
		outer loop
			vertex 5 -5 5
			vertex 5 -5 -5
			vertex 5 5 -5
		endloop
	endfacet
	facet normal -1 0 0
		outer loop
			vertex -5 5 -5
			vertex -5 -5 -5
			vertex -5 5 5
		endloop
	endfacet
	facet normal -1 0 0
		outer loop
			vertex -5 -5 -5
			vertex -5 -5 5
			vertex -5 5 5
		endloop
	endfacet
	facet normal 0 1 0
		outer loop
			vertex -5 5 -5
			vertex -5 5 5
			vertex 5 5 -5
		endloop
	endfacet
	facet normal 0 1 0
		outer loop
			vertex -5 5 5
			vertex 5 5 5
			vertex 5 5 -5
		endloop
	endfacet
	facet normal 0 -1 0
		outer loop
			vertex -5 -5 5
			vertex -5 -5 -5
			vertex 5 -5 5
		endloop
	endfacet
	facet normal 0 -1 0
		outer loop
			vertex -5 -5 -5
			vertex 5 -5 -5
			vertex 5 -5 5
		endloop
	endfacet
	facet normal 0 0 1
		outer loop
			vertex -5 5 5
			vertex -5 -5 5
			vertex 5 5 5
		endloop
	endfacet
	facet normal 0 0 1
		outer loop
			vertex -5 -5 5
			vertex 5 -5 5
			vertex 5 5 5
		endloop
	endfacet
	facet normal 0 0 -1
		outer loop
			vertex 5 5 -5
			vertex 5 -5 -5
			vertex -5 5 -5
		endloop
	endfacet
	facet normal 0 0 -1
		outer loop
			vertex 5 -5 -5
			vertex -5 -5 -5
			vertex -5 5 -5
		endloop
	endfacet
	facet normal -0.15623277758608414 0.9864149361260257 0.05076310663489367
		outer loop
			vertex 0 10 0
			vertex -3.090169943749474 9.510565162951535 0
			vertex -2.5 9.510565162951535 1.8163563200134023
		endloop
	endfacet
	facet normal -0.0965571667050027 0.9864149361260257 0.13289953854468697
		outer loop
			vertex 0 10 0
			vertex -2.5 9.510565162951535 1.8163563200134023
			vertex -0.9549150281252629 9.510565162951535 2.938926261462365
		endloop
	endfacet
	facet normal -3.819806168338862e-17 0.9864149361260257 0.16427286381958656
		outer loop
			vertex 0 10 0
			vertex -0.9549150281252629 9.510565162951535 2.938926261462365
			vertex 0.9549150281252626 9.510565162951535 2.9389262614623655
		endloop
	endfacet
	facet normal 0.09655716670500276 0.9864149361260257 0.13289953854468697
		outer loop
			vertex 0 10 0
			vertex 0.9549150281252626 9.510565162951535 2.9389262614623655
			vertex 2.499999999999999 9.510565162951535 1.8163563200134025
		endloop
	endfacet
	facet normal 0.15623277758608417 0.9864149361260257 0.050763106634893744
		outer loop
			vertex 0 10 0
			vertex 2.499999999999999 9.510565162951535 1.8163563200134025
			vertex 3.090169943749474 9.510565162951535 3.784241747506544e-16
		endloop
	endfacet
	facet normal 0.15623277758608417 0.9864149361260257 -0.05076310663489363
		outer loop
			vertex 0 10 0
			vertex 3.090169943749474 9.510565162951535 3.784241747506544e-16
			vertex 2.5000000000000004 9.510565162951535 -1.8163563200134016
		endloop
	endfacet
	facet normal 0.09655716670500274 0.9864149361260257 -0.13289953854468695
		outer loop
			vertex 0 10 0
			vertex 2.5000000000000004 9.510565162951535 -1.8163563200134016
			vertex 0.9549150281252632 9.510565162951535 -2.938926261462365
		endloop
	endfacet
	facet normal 3.819806168338862e-17 0.9864149361260257 -0.16427286381958656
		outer loop
			vertex 0 10 0
			vertex 0.9549150281252632 9.510565162951535 -2.938926261462365
			vertex -0.9549150281252622 9.510565162951535 -2.9389262614623655
		endloop
	endfacet
	facet normal -0.09655716670500272 0.9864149361260257 -0.13289953854468697
		outer loop
			vertex 0 10 0
			vertex -0.9549150281252622 9.510565162951535 -2.9389262614623655
			vertex -2.499999999999999 9.510565162951535 -1.8163563200134027
		endloop
	endfacet
	facet normal -0.15623277758608417 0.9864149361260257 -0.050763106634893744
		outer loop
			vertex 0 10 0
			vertex -2.499999999999999 9.510565162951535 -1.8163563200134027
			vertex -3.090169943749474 9.510565162951535 -7.568483495013088e-16
		endloop
	endfacet
	facet normal -0.4491304062125101 0.8814680535744689 0.14593131515553057
		outer loop
			vertex -2.5 9.510565162951535 1.8163563200134023
			vertex -3.090169943749474 9.510565162951535 0
			vertex -4.755282581475768 8.090169943749475 3.454915028125263
		endloop
	endfacet
	facet normal -0.44913040621251 0.881468053574469 0.1459313151555306
		outer loop
			vertex -3.090169943749474 9.510565162951535 0
			vertex -5.877852522924732 8.090169943749475 0
			vertex -4.755282581475768 8.090169943749475 3.454915028125263
		endloop
	endfacet
	facet normal -0.27757785642037797 0.8814680535744689 0.3820531431001518
		outer loop
			vertex -0.9549150281252629 9.510565162951535 2.938926261462365
			vertex -2.5 9.510565162951535 1.8163563200134023
			vertex -1.8163563200134023 8.090169943749475 5.590169943749474
		endloop
	endfacet
	facet normal -0.2775778564203781 0.8814680535744689 0.3820531431001518
		outer loop
			vertex -2.5 9.510565162951535 1.8163563200134023
			vertex -4.755282581475768 8.090169943749475 3.454915028125263
			vertex -1.8163563200134023 8.090169943749475 5.590169943749474
		endloop
	endfacet
	facet normal -1.0980993377614342e-16 0.8814680535744689 0.4722436558892422
		outer loop
			vertex 0.9549150281252626 9.510565162951535 2.9389262614623655
			vertex -0.9549150281252629 9.510565162951535 2.938926261462365
			vertex 1.8163563200134019 8.090169943749475 5.5901699437494745
		endloop
	endfacet
	facet normal -1.154609972117206e-16 0.8814680535744691 0.4722436558892424
		outer loop
			vertex -0.9549150281252629 9.510565162951535 2.938926261462365
			vertex -1.8163563200134023 8.090169943749475 5.590169943749474
			vertex 1.8163563200134019 8.090169943749475 5.5901699437494745
		endloop
	endfacet
	facet normal 0.27757785642037813 0.8814680535744689 0.3820531431001517
		outer loop
			vertex 2.499999999999999 9.510565162951535 1.8163563200134025
			vertex 0.9549150281252626 9.510565162951535 2.9389262614623655
			vertex 4.755282581475767 8.090169943749475 3.4549150281252636
		endloop
	endfacet
	facet normal 0.2775778564203782 0.8814680535744691 0.3820531431001518
		outer loop
			vertex 0.9549150281252626 9.510565162951535 2.9389262614623655
			vertex 1.8163563200134019 8.090169943749475 5.5901699437494745
			vertex 4.755282581475767 8.090169943749475 3.4549150281252636
		endloop
	endfacet
	facet normal 0.44913040621251005 0.881468053574469 0.14593131515553076
		outer loop
			vertex 3.090169943749474 9.510565162951535 3.784241747506544e-16
			vertex 2.499999999999999 9.510565162951535 1.8163563200134025
			vertex 5.877852522924732 8.090169943749475 7.198055546404517e-16
		endloop
	endfacet
	facet normal 0.4491304062125101 0.8814680535744691 0.14593131515553076
		outer loop
			vertex 2.499999999999999 9.510565162951535 1.8163563200134025
			vertex 4.755282581475767 8.090169943749475 3.4549150281252636
			vertex 5.877852522924732 8.090169943749475 7.198055546404517e-16
		endloop
	endfacet
	facet normal 0.4491304062125101 0.8814680535744689 -0.14593131515553046
		outer loop
			vertex 2.5000000000000004 9.510565162951535 -1.8163563200134016
			vertex 3.090169943749474 9.510565162951535 3.784241747506544e-16
			vertex 4.755282581475769 8.090169943749475 -3.4549150281252623
		endloop
	endfacet
	facet normal 0.44913040621251 0.881468053574469 -0.14593131515553046
		outer loop
			vertex 3.090169943749474 9.510565162951535 3.784241747506544e-16
			vertex 5.877852522924732 8.090169943749475 7.198055546404517e-16
			vertex 4.755282581475769 8.090169943749475 -3.4549150281252623
		endloop
	endfacet
	facet normal 0.27757785642037813 0.881468053574469 -0.38205314310015176
		outer loop
			vertex 0.9549150281252632 9.510565162951535 -2.938926261462365
			vertex 2.5000000000000004 9.510565162951535 -1.8163563200134016
			vertex 1.816356320013403 8.090169943749475 -5.590169943749474
		endloop
	endfacet
	facet normal 0.2775778564203782 0.8814680535744691 -0.38205314310015176
		outer loop
			vertex 2.5000000000000004 9.510565162951535 -1.8163563200134016
			vertex 4.755282581475769 8.090169943749475 -3.4549150281252623
			vertex 1.816356320013403 8.090169943749475 -5.590169943749474
		endloop
	endfacet
	facet normal 1.0980993377614342e-16 0.8814680535744689 -0.4722436558892422
		outer loop
			vertex -0.9549150281252622 9.510565162951535 -2.9389262614623655
			vertex 0.9549150281252632 9.510565162951535 -2.938926261462365
			vertex -1.8163563200134012 8.090169943749475 -5.5901699437494745
		endloop
	endfacet
	facet normal 1.154609972117206e-16 0.8814680535744691 -0.4722436558892424
		outer loop
			vertex 0.9549150281252632 9.510565162951535 -2.938926261462365
			vertex 1.816356320013403 8.090169943749475 -5.590169943749474
			vertex -1.8163563200134012 8.090169943749475 -5.5901699437494745
		endloop
	endfacet
	facet normal -0.277577856420378 0.8814680535744689 -0.3820531431001517
		outer loop
			vertex -2.499999999999999 9.510565162951535 -1.8163563200134027
			vertex -0.9549150281252622 9.510565162951535 -2.9389262614623655
			vertex -4.755282581475767 8.090169943749475 -3.454915028125264
		endloop
	endfacet
	facet normal -0.2775778564203781 0.8814680535744691 -0.3820531431001518
		outer loop
			vertex -0.9549150281252622 9.510565162951535 -2.9389262614623655
			vertex -1.8163563200134012 8.090169943749475 -5.5901699437494745
			vertex -4.755282581475767 8.090169943749475 -3.454915028125264
		endloop
	endfacet
	facet normal -0.44913040621251005 0.881468053574469 -0.14593131515553076
		outer loop
			vertex -3.090169943749474 9.510565162951535 -7.568483495013088e-16
			vertex -2.499999999999999 9.510565162951535 -1.8163563200134027
			vertex -5.877852522924732 8.090169943749475 -1.4396111092809033e-15
		endloop
	endfacet
	facet normal -0.44913040621250994 0.8814680535744689 -0.14593131515553068
		outer loop
			vertex -2.499999999999999 9.510565162951535 -1.8163563200134027
			vertex -4.755282581475767 8.090169943749475 -3.454915028125264
			vertex -5.877852522924732 8.090169943749475 -1.4396111092809033e-15
		endloop
	endfacet
	facet normal -0.6891517577746517 0.6891517577746517 0.22391897979451325
		outer loop
			vertex -4.755282581475768 8.090169943749475 3.454915028125263
			vertex -5.877852522924732 8.090169943749475 0
			vertex -6.545084971874737 5.877852522924732 4.755282581475768
		endloop
	endfacet
	facet normal -0.6891517577746517 0.6891517577746517 0.22391897979451328
		outer loop
			vertex -5.877852522924732 8.090169943749475 0
			vertex -8.090169943749475 5.877852522924732 0
			vertex -6.545084971874737 5.877852522924732 4.755282581475768
		endloop
	endfacet
	facet normal -0.42591920971146907 0.6891517577746517 0.5862274998282366
		outer loop
			vertex -1.8163563200134023 8.090169943749475 5.590169943749474
			vertex -4.755282581475768 8.090169943749475 3.454915028125263
			vertex -2.5000000000000004 5.877852522924732 7.694208842938133
		endloop
	endfacet
	facet normal -0.42591920971146935 0.6891517577746517 0.5862274998282367
		outer loop
			vertex -4.755282581475768 8.090169943749475 3.454915028125263
			vertex -6.545084971874737 5.877852522924732 4.755282581475768
			vertex -2.5000000000000004 5.877852522924732 7.694208842938133
		endloop
	endfacet
	facet normal -1.7716491264504157e-16 0.6891517577746517 0.7246170400674466
		outer loop
			vertex 1.8163563200134019 8.090169943749475 5.5901699437494745
			vertex -1.8163563200134023 8.090169943749475 5.590169943749474
			vertex 2.4999999999999996 5.877852522924732 7.694208842938134
		endloop
	endfacet
	facet normal -1.2871784350697744e-16 0.6891517577746518 0.7246170400674468
		outer loop
			vertex -1.8163563200134023 8.090169943749475 5.590169943749474
			vertex -2.5000000000000004 5.877852522924732 7.694208842938133
			vertex 2.4999999999999996 5.877852522924732 7.694208842938134
		endloop
	endfacet
	facet normal 0.4259192097114693 0.6891517577746519 0.5862274998282367
		outer loop
			vertex 4.755282581475767 8.090169943749475 3.4549150281252636
			vertex 1.8163563200134019 8.090169943749475 5.5901699437494745
			vertex 6.545084971874736 5.877852522924732 4.755282581475769
		endloop
	endfacet
	facet normal 0.42591920971146935 0.6891517577746518 0.5862274998282367
		outer loop
			vertex 1.8163563200134019 8.090169943749475 5.5901699437494745
			vertex 2.4999999999999996 5.877852522924732 7.694208842938134
			vertex 6.545084971874736 5.877852522924732 4.755282581475769
		endloop
	endfacet
	facet normal 0.6891517577746515 0.6891517577746515 0.22391897979451347
		outer loop
			vertex 5.877852522924732 8.090169943749475 7.198055546404517e-16
			vertex 4.755282581475767 8.090169943749475 3.4549150281252636
			vertex 8.090169943749475 5.877852522924732 9.90727351661843e-16
		endloop
	endfacet
	facet normal 0.6891517577746517 0.6891517577746518 0.2239189797945134
		outer loop
			vertex 4.755282581475767 8.090169943749475 3.4549150281252636
			vertex 6.545084971874736 5.877852522924732 4.755282581475769
			vertex 8.090169943749475 5.877852522924732 9.90727351661843e-16
		endloop
	endfacet
	facet normal 0.6891517577746515 0.6891517577746518 -0.22391897979451306
		outer loop
			vertex 4.755282581475769 8.090169943749475 -3.4549150281252623
			vertex 5.877852522924732 8.090169943749475 7.198055546404517e-16
			vertex 6.545084971874739 5.877852522924732 -4.755282581475767
		endloop
	endfacet
	facet normal 0.6891517577746517 0.6891517577746517 -0.22391897979451303
		outer loop
			vertex 5.877852522924732 8.090169943749475 7.198055546404517e-16
			vertex 8.090169943749475 5.877852522924732 9.90727351661843e-16
			vertex 6.545084971874739 5.877852522924732 -4.755282581475767
		endloop
	endfacet
	facet normal 0.4259192097114692 0.6891517577746518 -0.5862274998282365
		outer loop
			vertex 1.816356320013403 8.090169943749475 -5.590169943749474
			vertex 4.755282581475769 8.090169943749475 -3.4549150281252623
			vertex 2.500000000000001 5.877852522924732 -7.694208842938133
		endloop
	endfacet
	facet normal 0.4259192097114692 0.6891517577746518 -0.5862274998282365
		outer loop
			vertex 4.755282581475769 8.090169943749475 -3.4549150281252623
			vertex 6.545084971874739 5.877852522924732 -4.755282581475767
			vertex 2.500000000000001 5.877852522924732 -7.694208842938133
		endloop
	endfacet
	facet normal 1.7716491264504157e-16 0.6891517577746517 -0.7246170400674466
		outer loop
			vertex -1.8163563200134012 8.090169943749475 -5.5901699437494745
			vertex 1.816356320013403 8.090169943749475 -5.590169943749474
			vertex -2.4999999999999987 5.877852522924732 -7.694208842938134
		endloop
	endfacet
	facet normal 1.2871784350697744e-16 0.6891517577746518 -0.7246170400674468
		outer loop
			vertex 1.816356320013403 8.090169943749475 -5.590169943749474
			vertex 2.500000000000001 5.877852522924732 -7.694208842938133
			vertex -2.4999999999999987 5.877852522924732 -7.694208842938134
		endloop
	endfacet
	facet normal -0.42591920971146907 0.6891517577746518 -0.5862274998282366
		outer loop
			vertex -4.755282581475767 8.090169943749475 -3.454915028125264
			vertex -1.8163563200134012 8.090169943749475 -5.5901699437494745
			vertex -6.545084971874736 5.877852522924732 -4.75528258147577
		endloop
	endfacet
	facet normal -0.4259192097114691 0.6891517577746518 -0.5862274998282369
		outer loop
			vertex -1.8163563200134012 8.090169943749475 -5.5901699437494745
			vertex -2.4999999999999987 5.877852522924732 -7.694208842938134
			vertex -6.545084971874736 5.877852522924732 -4.75528258147577
		endloop
	endfacet
	facet normal -0.6891517577746515 0.6891517577746517 -0.22391897979451347
		outer loop
			vertex -5.877852522924732 8.090169943749475 -1.4396111092809033e-15
			vertex -4.755282581475767 8.090169943749475 -3.454915028125264
			vertex -8.090169943749475 5.877852522924732 -1.981454703323686e-15
		endloop
	endfacet
	facet normal -0.6891517577746515 0.6891517577746518 -0.22391897979451336
		outer loop
			vertex -4.755282581475767 8.090169943749475 -3.454915028125264
			vertex -6.545084971874736 5.877852522924732 -4.75528258147577
			vertex -8.090169943749475 5.877852522924732 -1.981454703323686e-15
		endloop
	endfacet
	facet normal -0.8558617374001473 0.4360833364538927 0.2780863357334233
		outer loop
			vertex -6.545084971874737 5.877852522924732 4.755282581475768
			vertex -8.090169943749475 5.877852522924732 0
			vertex -7.694208842938133 3.0901699437494745 5.5901699437494745
		endloop
	endfacet
	facet normal -0.8558617374001475 0.4360833364538925 0.27808633573342323
		outer loop
			vertex -8.090169943749475 5.877852522924732 0
			vertex -9.510565162951535 3.0901699437494745 0
			vertex -7.694208842938133 3.0901699437494745 5.5901699437494745
		endloop
	endfacet
	facet normal -0.5289516433838282 0.43608333645389263 0.7280394787570167
		outer loop
			vertex -2.5000000000000004 5.877852522924732 7.694208842938133
			vertex -6.545084971874737 5.877852522924732 4.755282581475768
			vertex -2.938926261462366 3.0901699437494745 9.045084971874736
		endloop
	endfacet
	facet normal -0.528951643383828 0.4360833364538927 0.7280394787570167
		outer loop
			vertex -6.545084971874737 5.877852522924732 4.755282581475768
			vertex -7.694208842938133 3.0901699437494745 5.5901699437494745
			vertex -2.938926261462366 3.0901699437494745 9.045084971874736
		endloop
	endfacet
	facet normal -1.5985546860391982e-16 0.43608333645389297 0.8999062860471867
		outer loop
			vertex 2.4999999999999996 5.877852522924732 7.694208842938134
			vertex -2.5000000000000004 5.877852522924732 7.694208842938133
			vertex 2.938926261462365 3.0901699437494745 9.045084971874738
		endloop
	endfacet
	facet normal -2.7196236717483706e-16 0.4360833364538927 0.8999062860471867
		outer loop
			vertex -2.5000000000000004 5.877852522924732 7.694208842938133
			vertex -2.938926261462366 3.0901699437494745 9.045084971874736
			vertex 2.938926261462365 3.0901699437494745 9.045084971874738
		endloop
	endfacet
	facet normal 0.5289516433838282 0.4360833364538925 0.7280394787570167
		outer loop
			vertex 6.545084971874736 5.877852522924732 4.755282581475769
			vertex 2.4999999999999996 5.877852522924732 7.694208842938134
			vertex 7.6942088429381315 3.0901699437494745 5.590169943749475
		endloop
	endfacet
	facet normal 0.5289516433838282 0.43608333645389286 0.7280394787570166
		outer loop
			vertex 2.4999999999999996 5.877852522924732 7.694208842938134
			vertex 2.938926261462365 3.0901699437494745 9.045084971874738
			vertex 7.6942088429381315 3.0901699437494745 5.590169943749475
		endloop
	endfacet
	facet normal 0.8558617374001475 0.4360833364538924 0.2780863357334235
		outer loop
			vertex 8.090169943749475 5.877852522924732 9.90727351661843e-16
			vertex 6.545084971874736 5.877852522924732 4.755282581475769
			vertex 9.510565162951535 3.0901699437494745 1.1646698526992202e-15
		endloop
	endfacet
	facet normal 0.8558617374001474 0.4360833364538925 0.27808633573342345
		outer loop
			vertex 6.545084971874736 5.877852522924732 4.755282581475769
			vertex 7.6942088429381315 3.0901699437494745 5.590169943749475
			vertex 9.510565162951535 3.0901699437494745 1.1646698526992202e-15
		endloop
	endfacet
	facet normal 0.8558617374001475 0.4360833364538925 -0.278086335733423
		outer loop
			vertex 6.545084971874739 5.877852522924732 -4.755282581475767
			vertex 8.090169943749475 5.877852522924732 9.90727351661843e-16
			vertex 7.694208842938135 3.0901699437494745 -5.590169943749473
		endloop
	endfacet
	facet normal 0.8558617374001476 0.4360833364538925 -0.278086335733423
		outer loop
			vertex 8.090169943749475 5.877852522924732 9.90727351661843e-16
			vertex 9.510565162951535 3.0901699437494745 1.1646698526992202e-15
			vertex 7.694208842938135 3.0901699437494745 -5.590169943749473
		endloop
	endfacet
	facet normal 0.528951643383828 0.4360833364538927 -0.7280394787570167
		outer loop
			vertex 2.500000000000001 5.877852522924732 -7.694208842938133
			vertex 6.545084971874739 5.877852522924732 -4.755282581475767
			vertex 2.938926261462367 3.0901699437494745 -9.045084971874736
		endloop
	endfacet
	facet normal 0.5289516433838283 0.4360833364538926 -0.7280394787570168
		outer loop
			vertex 6.545084971874739 5.877852522924732 -4.755282581475767
			vertex 7.694208842938135 3.0901699437494745 -5.590169943749473
			vertex 2.938926261462367 3.0901699437494745 -9.045084971874736
		endloop
	endfacet
	facet normal 1.5985546860391982e-16 0.43608333645389297 -0.8999062860471867
		outer loop
			vertex -2.4999999999999987 5.877852522924732 -7.694208842938134
			vertex 2.500000000000001 5.877852522924732 -7.694208842938133
			vertex -2.9389262614623637 3.0901699437494745 -9.045084971874738
		endloop
	endfacet
	facet normal 2.719623671748372e-16 0.4360833364538928 -0.8999062860471868
		outer loop
			vertex 2.500000000000001 5.877852522924732 -7.694208842938133
			vertex 2.938926261462367 3.0901699437494745 -9.045084971874736
			vertex -2.9389262614623637 3.0901699437494745 -9.045084971874738
		endloop
	endfacet
	facet normal -0.5289516433838279 0.4360833364538926 -0.7280394787570168
		outer loop
			vertex -6.545084971874736 5.877852522924732 -4.75528258147577
			vertex -2.4999999999999987 5.877852522924732 -7.694208842938134
			vertex -7.6942088429381315 3.0901699437494745 -5.590169943749476
		endloop
	endfacet
	facet normal -0.5289516433838279 0.4360833364538928 -0.7280394787570168
		outer loop
			vertex -2.4999999999999987 5.877852522924732 -7.694208842938134
			vertex -2.9389262614623637 3.0901699437494745 -9.045084971874738
			vertex -7.6942088429381315 3.0901699437494745 -5.590169943749476
		endloop
	endfacet
	facet normal -0.8558617374001475 0.4360833364538925 -0.2780863357334235
		outer loop
			vertex -8.090169943749475 5.877852522924732 -1.981454703323686e-15
			vertex -6.545084971874736 5.877852522924732 -4.75528258147577
			vertex -9.510565162951535 3.0901699437494745 -2.3293397053984404e-15
		endloop
	endfacet
	facet normal -0.8558617374001474 0.43608333645389247 -0.2780863357334235
		outer loop
			vertex -6.545084971874736 5.877852522924732 -4.75528258147577
			vertex -7.6942088429381315 3.0901699437494745 -5.590169943749476
			vertex -9.510565162951535 3.0901699437494745 -2.3293397053984404e-15
		endloop
	endfacet
	facet normal -0.9404469136807776 0.14895215807826762 0.3055697255163324
		outer loop
			vertex -7.694208842938133 3.0901699437494745 5.5901699437494745
			vertex -9.510565162951535 3.0901699437494745 0
			vertex -8.090169943749475 6.123031769111886e-16 5.877852522924732
		endloop
	endfacet
	facet normal -0.9404469136807777 0.1489521580782678 0.30556972551633255
		outer loop
			vertex -9.510565162951535 3.0901699437494745 0
			vertex -10 6.123031769111886e-16 0
			vertex -8.090169943749475 6.123031769111886e-16 5.877852522924732
		endloop
	endfacet
	facet normal -0.5812281572696589 0.1489521580782675 0.7999919273347347
		outer loop
			vertex -2.938926261462366 3.0901699437494745 9.045084971874736
			vertex -7.694208842938133 3.0901699437494745 5.5901699437494745
			vertex -3.0901699437494745 6.123031769111886e-16 9.510565162951535
		endloop
	endfacet
	facet normal -0.5812281572696589 0.14895215807826762 0.7999919273347348
		outer loop
			vertex -7.694208842938133 3.0901699437494745 5.5901699437494745
			vertex -8.090169943749475 6.123031769111886e-16 5.877852522924732
			vertex -3.0901699437494745 6.123031769111886e-16 9.510565162951535
		endloop
	endfacet
	facet normal -2.988405225636506e-16 0.14895215807826734 0.9888444036368041
		outer loop
			vertex 2.938926261462365 3.0901699437494745 9.045084971874738
			vertex -2.938926261462366 3.0901699437494745 9.045084971874736
			vertex 3.0901699437494736 6.123031769111886e-16 9.510565162951536
		endloop
	endfacet
	facet normal -2.8421422631720884e-16 0.1489521580782674 0.9888444036368041
		outer loop
			vertex -2.938926261462366 3.0901699437494745 9.045084971874736
			vertex -3.0901699437494745 6.123031769111886e-16 9.510565162951535
			vertex 3.0901699437494736 6.123031769111886e-16 9.510565162951536
		endloop
	endfacet
	facet normal 0.5812281572696592 0.1489521580782677 0.7999919273347346
		outer loop
			vertex 7.6942088429381315 3.0901699437494745 5.590169943749475
			vertex 2.938926261462365 3.0901699437494745 9.045084971874738
			vertex 8.090169943749473 6.123031769111886e-16 5.877852522924733
		endloop
	endfacet
	facet normal 0.581228157269659 0.1489521580782674 0.7999919273347346
		outer loop
			vertex 2.938926261462365 3.0901699437494745 9.045084971874738
			vertex 3.0901699437494736 6.123031769111886e-16 9.510565162951536
			vertex 8.090169943749473 6.123031769111886e-16 5.877852522924733
		endloop
	endfacet
	facet normal 0.9404469136807775 0.14895215807826773 0.30556972551633266
		outer loop
			vertex 9.510565162951535 3.0901699437494745 1.1646698526992202e-15
			vertex 7.6942088429381315 3.0901699437494745 5.590169943749475
			vertex 10 6.123031769111886e-16 1.2246063538223773e-15
		endloop
	endfacet
	facet normal 0.9404469136807775 0.14895215807826767 0.30556972551633277
		outer loop
			vertex 7.6942088429381315 3.0901699437494745 5.590169943749475
			vertex 8.090169943749473 6.123031769111886e-16 5.877852522924733
			vertex 10 6.123031769111886e-16 1.2246063538223773e-15
		endloop
	endfacet
	facet normal 0.9404469136807777 0.14895215807826762 -0.3055697255163322
		outer loop
			vertex 7.694208842938135 3.0901699437494745 -5.590169943749473
			vertex 9.510565162951535 3.0901699437494745 1.1646698526992202e-15
			vertex 8.090169943749476 6.123031769111886e-16 -5.87785252292473
		endloop
	endfacet
	facet normal 0.9404469136807777 0.14895215807826778 -0.3055697255163322
		outer loop
			vertex 9.510565162951535 3.0901699437494745 1.1646698526992202e-15
			vertex 10 6.123031769111886e-16 1.2246063538223773e-15
			vertex 8.090169943749476 6.123031769111886e-16 -5.87785252292473
		endloop
	endfacet
	facet normal 0.581228157269659 0.14895215807826737 -0.7999919273347346
		outer loop
			vertex 2.938926261462367 3.0901699437494745 -9.045084971874736
			vertex 7.694208842938135 3.0901699437494745 -5.590169943749473
			vertex 3.0901699437494754 6.123031769111886e-16 -9.510565162951535
		endloop
	endfacet
	facet normal 0.581228157269659 0.14895215807826762 -0.7999919273347347
		outer loop
			vertex 7.694208842938135 3.0901699437494745 -5.590169943749473
			vertex 8.090169943749476 6.123031769111886e-16 -5.87785252292473
			vertex 3.0901699437494754 6.123031769111886e-16 -9.510565162951535
		endloop
	endfacet
	facet normal 2.9884052256365067e-16 0.14895215807826737 -0.9888444036368041
		outer loop
			vertex -2.9389262614623637 3.0901699437494745 -9.045084971874738
			vertex 2.938926261462367 3.0901699437494745 -9.045084971874736
			vertex -3.0901699437494723 6.123031769111886e-16 -9.510565162951536
		endloop
	endfacet
	facet normal 2.8421422631720884e-16 0.1489521580782674 -0.988844403636804
		outer loop
			vertex 2.938926261462367 3.0901699437494745 -9.045084971874736
			vertex 3.0901699437494754 6.123031769111886e-16 -9.510565162951535
			vertex -3.0901699437494723 6.123031769111886e-16 -9.510565162951536
		endloop
	endfacet
	facet normal -0.5812281572696588 0.14895215807826756 -0.7999919273347347
		outer loop
			vertex -7.6942088429381315 3.0901699437494745 -5.590169943749476
			vertex -2.9389262614623637 3.0901699437494745 -9.045084971874738
			vertex -8.090169943749473 6.123031769111886e-16 -5.877852522924734
		endloop
	endfacet
	facet normal -0.5812281572696589 0.1489521580782674 -0.7999919273347348
		outer loop
			vertex -2.9389262614623637 3.0901699437494745 -9.045084971874738
			vertex -3.0901699437494723 6.123031769111886e-16 -9.510565162951536
			vertex -8.090169943749473 6.123031769111886e-16 -5.877852522924734
		endloop
	endfacet
	facet normal -0.9404469136807775 0.14895215807826775 -0.3055697255163327
		outer loop
			vertex -9.510565162951535 3.0901699437494745 -2.3293397053984404e-15
			vertex -7.6942088429381315 3.0901699437494745 -5.590169943749476
			vertex -10 6.123031769111886e-16 -2.4492127076447545e-15
		endloop
	endfacet
	facet normal -0.9404469136807775 0.14895215807826767 -0.30556972551633277
		outer loop
			vertex -7.6942088429381315 3.0901699437494745 -5.590169943749476
			vertex -8.090169943749473 6.123031769111886e-16 -5.877852522924734
			vertex -10 6.123031769111886e-16 -2.4492127076447545e-15
		endloop
	endfacet
	facet normal -0.9404469136807777 -0.14895215807826734 0.30556972551633255
		outer loop
			vertex -8.090169943749475 6.123031769111886e-16 5.877852522924732
			vertex -10 6.123031769111886e-16 0
			vertex -7.694208842938134 -3.0901699437494736 5.590169943749475
		endloop
	endfacet
	facet normal -0.9404469136807777 -0.14895215807826725 0.3055697255163325
		outer loop
			vertex -10 6.123031769111886e-16 0
			vertex -9.510565162951536 -3.0901699437494736 0
			vertex -7.694208842938134 -3.0901699437494736 5.590169943749475
		endloop
	endfacet
	facet normal -0.5812281572696589 -0.14895215807826734 0.7999919273347348
		outer loop
			vertex -3.0901699437494745 6.123031769111886e-16 9.510565162951535
			vertex -8.090169943749475 6.123031769111886e-16 5.877852522924732
			vertex -2.938926261462366 -3.0901699437494736 9.045084971874736
		endloop
	endfacet
	facet normal -0.5812281572696589 -0.14895215807826723 0.7999919273347349
		outer loop
			vertex -8.090169943749475 6.123031769111886e-16 5.877852522924732
			vertex -7.694208842938134 -3.0901699437494736 5.590169943749475
			vertex -2.938926261462366 -3.0901699437494736 9.045084971874736
		endloop
	endfacet
	facet normal -2.8421422631720884e-16 -0.14895215807826737 0.9888444036368041
		outer loop
			vertex 3.0901699437494736 6.123031769111886e-16 9.510565162951536
			vertex -3.0901699437494745 6.123031769111886e-16 9.510565162951535
			vertex 2.9389262614623655 -3.0901699437494736 9.045084971874738
		endloop
	endfacet
	facet normal -2.988405225636506e-16 -0.1489521580782674 0.9888444036368041
		outer loop
			vertex -3.0901699437494745 6.123031769111886e-16 9.510565162951535
			vertex -2.938926261462366 -3.0901699437494736 9.045084971874736
			vertex 2.9389262614623655 -3.0901699437494736 9.045084971874738
		endloop
	endfacet
	facet normal 0.581228157269659 -0.14895215807826725 0.7999919273347346
		outer loop
			vertex 8.090169943749473 6.123031769111886e-16 5.877852522924733
			vertex 3.0901699437494736 6.123031769111886e-16 9.510565162951536
			vertex 7.694208842938132 -3.0901699437494736 5.590169943749476
		endloop
	endfacet
	facet normal 0.581228157269659 -0.1489521580782673 0.7999919273347347
		outer loop
			vertex 3.0901699437494736 6.123031769111886e-16 9.510565162951536
			vertex 2.9389262614623655 -3.0901699437494736 9.045084971874738
			vertex 7.694208842938132 -3.0901699437494736 5.590169943749476
		endloop
	endfacet
	facet normal 0.9404469136807777 -0.14895215807826734 0.3055697255163328
		outer loop
			vertex 10 6.123031769111886e-16 1.2246063538223773e-15
			vertex 8.090169943749473 6.123031769111886e-16 5.877852522924733
			vertex 9.510565162951536 -3.0901699437494736 1.1646698526992204e-15
		endloop
	endfacet
	facet normal 0.9404469136807777 -0.14895215807826737 0.3055697255163328
		outer loop
			vertex 8.090169943749473 6.123031769111886e-16 5.877852522924733
			vertex 7.694208842938132 -3.0901699437494736 5.590169943749476
			vertex 9.510565162951536 -3.0901699437494736 1.1646698526992204e-15
		endloop
	endfacet
	facet normal 0.9404469136807778 -0.14895215807826734 -0.30556972551633227
		outer loop
			vertex 8.090169943749476 6.123031769111886e-16 -5.87785252292473
			vertex 10 6.123031769111886e-16 1.2246063538223773e-15
			vertex 7.694208842938136 -3.0901699437494736 -5.590169943749474
		endloop
	endfacet
	facet normal 0.9404469136807776 -0.14895215807826725 -0.30556972551633227
		outer loop
			vertex 10 6.123031769111886e-16 1.2246063538223773e-15
			vertex 9.510565162951536 -3.0901699437494736 1.1646698526992204e-15
			vertex 7.694208842938136 -3.0901699437494736 -5.590169943749474
		endloop
	endfacet
	facet normal 0.581228157269659 -0.1489521580782674 -0.7999919273347347
		outer loop
			vertex 3.0901699437494754 6.123031769111886e-16 -9.510565162951535
			vertex 8.090169943749476 6.123031769111886e-16 -5.87785252292473
			vertex 2.938926261462367 -3.0901699437494736 -9.045084971874736
		endloop
	endfacet
	facet normal 0.5812281572696589 -0.14895215807826723 -0.7999919273347347
		outer loop
			vertex 8.090169943749476 6.123031769111886e-16 -5.87785252292473
			vertex 7.694208842938136 -3.0901699437494736 -5.590169943749474
			vertex 2.938926261462367 -3.0901699437494736 -9.045084971874736
		endloop
	endfacet
	facet normal 2.8421422631720884e-16 -0.14895215807826734 -0.988844403636804
		outer loop
			vertex -3.0901699437494723 6.123031769111886e-16 -9.510565162951536
			vertex 3.0901699437494754 6.123031769111886e-16 -9.510565162951535
			vertex -2.938926261462364 -3.0901699437494736 -9.045084971874738
		endloop
	endfacet
	facet normal 2.988405225636506e-16 -0.14895215807826737 -0.9888444036368041
		outer loop
			vertex 3.0901699437494754 6.123031769111886e-16 -9.510565162951535
			vertex 2.938926261462367 -3.0901699437494736 -9.045084971874736
			vertex -2.938926261462364 -3.0901699437494736 -9.045084971874738
		endloop
	endfacet
	facet normal -0.5812281572696589 -0.14895215807826706 -0.7999919273347348
		outer loop
			vertex -8.090169943749473 6.123031769111886e-16 -5.877852522924734
			vertex -3.0901699437494723 6.123031769111886e-16 -9.510565162951536
			vertex -7.694208842938132 -3.0901699437494736 -5.590169943749477
		endloop
	endfacet
	facet normal -0.5812281572696587 -0.1489521580782673 -0.7999919273347347
		outer loop
			vertex -3.0901699437494723 6.123031769111886e-16 -9.510565162951536
			vertex -2.938926261462364 -3.0901699437494736 -9.045084971874738
			vertex -7.694208842938132 -3.0901699437494736 -5.590169943749477
		endloop
	endfacet
	facet normal -0.9404469136807777 -0.14895215807826734 -0.3055697255163328
		outer loop
			vertex -10 6.123031769111886e-16 -2.4492127076447545e-15
			vertex -8.090169943749473 6.123031769111886e-16 -5.877852522924734
			vertex -9.510565162951536 -3.0901699437494736 -2.3293397053984408e-15
		endloop
	endfacet
	facet normal -0.9404469136807775 -0.1489521580782673 -0.3055697255163328
		outer loop
			vertex -8.090169943749473 6.123031769111886e-16 -5.877852522924734
			vertex -7.694208842938132 -3.0901699437494736 -5.590169943749477
			vertex -9.510565162951536 -3.0901699437494736 -2.3293397053984408e-15
		endloop
	endfacet
	facet normal -0.8558617374001473 -0.4360833364538932 0.2780863357334233
		outer loop
			vertex -7.694208842938134 -3.0901699437494736 5.590169943749475
			vertex -9.510565162951536 -3.0901699437494736 0
			vertex -6.545084971874737 -5.87785252292473 4.755282581475768
		endloop
	endfacet
	facet normal -0.8558617374001471 -0.436083336453893 0.27808633573342323
		outer loop
			vertex -9.510565162951536 -3.0901699437494736 0
			vertex -8.090169943749475 -5.87785252292473 0
			vertex -6.545084971874737 -5.87785252292473 4.755282581475768
		endloop
	endfacet
	facet normal -0.5289516433838279 -0.4360833364538929 0.7280394787570168
		outer loop
			vertex -2.938926261462366 -3.0901699437494736 9.045084971874736
			vertex -7.694208842938134 -3.0901699437494736 5.590169943749475
			vertex -2.5000000000000004 -5.87785252292473 7.694208842938133
		endloop
	endfacet
	facet normal -0.528951643383828 -0.43608333645389313 0.7280394787570165
		outer loop
			vertex -7.694208842938134 -3.0901699437494736 5.590169943749475
			vertex -6.545084971874737 -5.87785252292473 4.755282581475768
			vertex -2.5000000000000004 -5.87785252292473 7.694208842938133
		endloop
	endfacet
	facet normal -2.71962367174837e-16 -0.436083336453893 0.8999062860471866
		outer loop
			vertex 2.9389262614623655 -3.0901699437494736 9.045084971874738
			vertex -2.938926261462366 -3.0901699437494736 9.045084971874736
			vertex 2.4999999999999996 -5.87785252292473 7.694208842938134
		endloop
	endfacet
	facet normal -1.5985546860391982e-16 -0.43608333645389274 0.8999062860471867
		outer loop
			vertex -2.938926261462366 -3.0901699437494736 9.045084971874736
			vertex -2.5000000000000004 -5.87785252292473 7.694208842938133
			vertex 2.4999999999999996 -5.87785252292473 7.694208842938134
		endloop
	endfacet
	facet normal 0.528951643383828 -0.4360833364538929 0.7280394787570166
		outer loop
			vertex 7.694208842938132 -3.0901699437494736 5.590169943749476
			vertex 2.9389262614623655 -3.0901699437494736 9.045084971874738
			vertex 6.545084971874736 -5.87785252292473 4.755282581475769
		endloop
	endfacet
	facet normal 0.528951643383828 -0.436083336453893 0.7280394787570165
		outer loop
			vertex 2.9389262614623655 -3.0901699437494736 9.045084971874738
			vertex 2.4999999999999996 -5.87785252292473 7.694208842938134
			vertex 6.545084971874736 -5.87785252292473 4.755282581475769
		endloop
	endfacet
	facet normal 0.855861737400147 -0.43608333645389297 0.27808633573342345
		outer loop
			vertex 9.510565162951536 -3.0901699437494736 1.1646698526992204e-15
			vertex 7.694208842938132 -3.0901699437494736 5.590169943749476
			vertex 8.090169943749475 -5.87785252292473 9.90727351661843e-16
		endloop
	endfacet
	facet normal 0.8558617374001471 -0.4360833364538929 0.27808633573342345
		outer loop
			vertex 7.694208842938132 -3.0901699437494736 5.590169943749476
			vertex 6.545084971874736 -5.87785252292473 4.755282581475769
			vertex 8.090169943749475 -5.87785252292473 9.90727351661843e-16
		endloop
	endfacet
	facet normal 0.8558617374001473 -0.43608333645389297 -0.278086335733423
		outer loop
			vertex 7.694208842938136 -3.0901699437494736 -5.590169943749474
			vertex 9.510565162951536 -3.0901699437494736 1.1646698526992204e-15
			vertex 6.545084971874739 -5.87785252292473 -4.755282581475767
		endloop
	endfacet
	facet normal 0.8558617374001473 -0.43608333645389313 -0.27808633573342295
		outer loop
			vertex 9.510565162951536 -3.0901699437494736 1.1646698526992204e-15
			vertex 8.090169943749475 -5.87785252292473 9.90727351661843e-16
			vertex 6.545084971874739 -5.87785252292473 -4.755282581475767
		endloop
	endfacet
	facet normal 0.5289516433838279 -0.43608333645389297 -0.7280394787570167
		outer loop
			vertex 2.938926261462367 -3.0901699437494736 -9.045084971874736
			vertex 7.694208842938136 -3.0901699437494736 -5.590169943749474
			vertex 2.500000000000001 -5.87785252292473 -7.694208842938133
		endloop
	endfacet
	facet normal 0.528951643383828 -0.436083336453893 -0.7280394787570166
		outer loop
			vertex 7.694208842938136 -3.0901699437494736 -5.590169943749474
			vertex 6.545084971874739 -5.87785252292473 -4.755282581475767
			vertex 2.500000000000001 -5.87785252292473 -7.694208842938133
		endloop
	endfacet
	facet normal 2.719623671748371e-16 -0.4360833364538931 -0.8999062860471866
		outer loop
			vertex -2.938926261462364 -3.0901699437494736 -9.045084971874738
			vertex 2.938926261462367 -3.0901699437494736 -9.045084971874736
			vertex -2.4999999999999987 -5.87785252292473 -7.694208842938134
		endloop
	endfacet
	facet normal 1.5985546860391982e-16 -0.43608333645389274 -0.8999062860471867
		outer loop
			vertex 2.938926261462367 -3.0901699437494736 -9.045084971874736
			vertex 2.500000000000001 -5.87785252292473 -7.694208842938133
			vertex -2.4999999999999987 -5.87785252292473 -7.694208842938134
		endloop
	endfacet
	facet normal -0.5289516433838279 -0.436083336453893 -0.7280394787570168
		outer loop
			vertex -7.694208842938132 -3.0901699437494736 -5.590169943749477
			vertex -2.938926261462364 -3.0901699437494736 -9.045084971874738
			vertex -6.545084971874736 -5.87785252292473 -4.75528258147577
		endloop
	endfacet
	facet normal -0.5289516433838277 -0.4360833364538931 -0.7280394787570168
		outer loop
			vertex -2.938926261462364 -3.0901699437494736 -9.045084971874738
			vertex -2.4999999999999987 -5.87785252292473 -7.694208842938134
			vertex -6.545084971874736 -5.87785252292473 -4.75528258147577
		endloop
	endfacet
	facet normal -0.8558617374001471 -0.4360833364538931 -0.2780863357334235
		outer loop
			vertex -9.510565162951536 -3.0901699437494736 -2.3293397053984408e-15
			vertex -7.694208842938132 -3.0901699437494736 -5.590169943749477
			vertex -8.090169943749475 -5.87785252292473 -1.981454703323686e-15
		endloop
	endfacet
	facet normal -0.8558617374001471 -0.4360833364538929 -0.27808633573342345
		outer loop
			vertex -7.694208842938132 -3.0901699437494736 -5.590169943749477
			vertex -6.545084971874736 -5.87785252292473 -4.75528258147577
			vertex -8.090169943749475 -5.87785252292473 -1.981454703323686e-15
		endloop
	endfacet
	facet normal -0.6891517577746518 -0.6891517577746514 0.22391897979451333
		outer loop
			vertex -6.545084971874737 -5.87785252292473 4.755282581475768
			vertex -8.090169943749475 -5.87785252292473 0
			vertex -4.755282581475769 -8.090169943749473 3.454915028125264
		endloop
	endfacet
	facet normal -0.6891517577746518 -0.6891517577746515 0.22391897979451325
		outer loop
			vertex -8.090169943749475 -5.87785252292473 0
			vertex -5.877852522924733 -8.090169943749473 0
			vertex -4.755282581475769 -8.090169943749473 3.454915028125264
		endloop
	endfacet
	facet normal -0.42591920971146935 -0.6891517577746517 0.5862274998282367
		outer loop
			vertex -2.5000000000000004 -5.87785252292473 7.694208842938133
			vertex -6.545084971874737 -5.87785252292473 4.755282581475768
			vertex -1.8163563200134027 -8.090169943749473 5.5901699437494745
		endloop
	endfacet
	facet normal -0.4259192097114693 -0.6891517577746515 0.586227499828237
		outer loop
			vertex -6.545084971874737 -5.87785252292473 4.755282581475768
			vertex -4.755282581475769 -8.090169943749473 3.454915028125264
			vertex -1.8163563200134027 -8.090169943749473 5.5901699437494745
		endloop
	endfacet
	facet normal -1.2871784350697746e-16 -0.6891517577746517 0.724617040067447
		outer loop
			vertex 2.4999999999999996 -5.87785252292473 7.694208842938134
			vertex -2.5000000000000004 -5.87785252292473 7.694208842938133
			vertex 1.8163563200134023 -8.090169943749473 5.590169943749475
		endloop
	endfacet
	facet normal -1.7716491264504155e-16 -0.6891517577746515 0.7246170400674466
		outer loop
			vertex -2.5000000000000004 -5.87785252292473 7.694208842938133
			vertex -1.8163563200134027 -8.090169943749473 5.5901699437494745
			vertex 1.8163563200134023 -8.090169943749473 5.590169943749475
		endloop
	endfacet
	facet normal 0.4259192097114695 -0.6891517577746515 0.586227499828237
		outer loop
			vertex 6.545084971874736 -5.87785252292473 4.755282581475769
			vertex 2.4999999999999996 -5.87785252292473 7.694208842938134
			vertex 4.755282581475768 -8.090169943749473 3.4549150281252645
		endloop
	endfacet
	facet normal 0.4259192097114693 -0.6891517577746518 0.5862274998282369
		outer loop
			vertex 2.4999999999999996 -5.87785252292473 7.694208842938134
			vertex 1.8163563200134023 -8.090169943749473 5.590169943749475
			vertex 4.755282581475768 -8.090169943749473 3.4549150281252645
		endloop
	endfacet
	facet normal 0.6891517577746518 -0.6891517577746515 0.22391897979451345
		outer loop
			vertex 8.090169943749475 -5.87785252292473 9.90727351661843e-16
			vertex 6.545084971874736 -5.87785252292473 4.755282581475769
			vertex 5.877852522924733 -8.090169943749473 7.198055546404518e-16
		endloop
	endfacet
	facet normal 0.6891517577746518 -0.6891517577746515 0.22391897979451347
		outer loop
			vertex 6.545084971874736 -5.87785252292473 4.755282581475769
			vertex 4.755282581475768 -8.090169943749473 3.4549150281252645
			vertex 5.877852522924733 -8.090169943749473 7.198055546404518e-16
		endloop
	endfacet
	facet normal 0.6891517577746518 -0.6891517577746517 -0.22391897979451306
		outer loop
			vertex 6.545084971874739 -5.87785252292473 -4.755282581475767
			vertex 8.090169943749475 -5.87785252292473 9.90727351661843e-16
			vertex 4.75528258147577 -8.090169943749473 -3.4549150281252627
		endloop
	endfacet
	facet normal 0.689151757774652 -0.6891517577746517 -0.22391897979451317
		outer loop
			vertex 8.090169943749475 -5.87785252292473 9.90727351661843e-16
			vertex 5.877852522924733 -8.090169943749473 7.198055546404518e-16
			vertex 4.75528258147577 -8.090169943749473 -3.4549150281252627
		endloop
	endfacet
	facet normal 0.42591920971146924 -0.6891517577746517 -0.5862274998282367
		outer loop
			vertex 2.500000000000001 -5.87785252292473 -7.694208842938133
			vertex 6.545084971874739 -5.87785252292473 -4.755282581475767
			vertex 1.8163563200134032 -8.090169943749473 -5.5901699437494745
		endloop
	endfacet
	facet normal 0.4259192097114693 -0.6891517577746517 -0.5862274998282367
		outer loop
			vertex 6.545084971874739 -5.87785252292473 -4.755282581475767
			vertex 4.75528258147577 -8.090169943749473 -3.4549150281252627
			vertex 1.8163563200134032 -8.090169943749473 -5.5901699437494745
		endloop
	endfacet
	facet normal 1.2871784350697746e-16 -0.6891517577746517 -0.724617040067447
		outer loop
			vertex -2.4999999999999987 -5.87785252292473 -7.694208842938134
			vertex 2.500000000000001 -5.87785252292473 -7.694208842938133
			vertex -1.8163563200134014 -8.090169943749473 -5.590169943749475
		endloop
	endfacet
	facet normal 1.7716491264504157e-16 -0.6891517577746515 -0.7246170400674468
		outer loop
			vertex 2.500000000000001 -5.87785252292473 -7.694208842938133
			vertex 1.8163563200134032 -8.090169943749473 -5.5901699437494745
			vertex -1.8163563200134014 -8.090169943749473 -5.590169943749475
		endloop
	endfacet
	facet normal -0.4259192097114691 -0.6891517577746515 -0.5862274998282369
		outer loop
			vertex -6.545084971874736 -5.87785252292473 -4.75528258147577
			vertex -2.4999999999999987 -5.87785252292473 -7.694208842938134
			vertex -4.755282581475768 -8.090169943749473 -3.454915028125265
		endloop
	endfacet
	facet normal -0.42591920971146907 -0.6891517577746515 -0.5862274998282367
		outer loop
			vertex -2.4999999999999987 -5.87785252292473 -7.694208842938134
			vertex -1.8163563200134014 -8.090169943749473 -5.590169943749475
			vertex -4.755282581475768 -8.090169943749473 -3.454915028125265
		endloop
	endfacet
	facet normal -0.6891517577746518 -0.6891517577746515 -0.22391897979451345
		outer loop
			vertex -8.090169943749475 -5.87785252292473 -1.981454703323686e-15
			vertex -6.545084971874736 -5.87785252292473 -4.75528258147577
			vertex -5.877852522924733 -8.090169943749473 -1.4396111092809035e-15
		endloop
	endfacet
	facet normal -0.6891517577746517 -0.6891517577746514 -0.22391897979451342
		outer loop
			vertex -6.545084971874736 -5.87785252292473 -4.75528258147577
			vertex -4.755282581475768 -8.090169943749473 -3.454915028125265
			vertex -5.877852522924733 -8.090169943749473 -1.4396111092809035e-15
		endloop
	endfacet
	facet normal -0.4491304062125105 -0.8814680535744688 0.1459313151555307
		outer loop
			vertex -4.755282581475769 -8.090169943749473 3.454915028125264
			vertex -5.877852522924733 -8.090169943749473 0
			vertex -2.500000000000001 -9.510565162951535 1.816356320013403
		endloop
	endfacet
	facet normal -0.4491304062125105 -0.8814680535744687 0.14593131515553062
		outer loop
			vertex -5.877852522924733 -8.090169943749473 0
			vertex -3.090169943749475 -9.510565162951535 0
			vertex -2.500000000000001 -9.510565162951535 1.816356320013403
		endloop
	endfacet
	facet normal -0.2775778564203783 -0.8814680535744687 0.38205314310015215
		outer loop
			vertex -1.8163563200134027 -8.090169943749473 5.5901699437494745
			vertex -4.755282581475769 -8.090169943749473 3.454915028125264
			vertex -0.9549150281252632 -9.510565162951535 2.938926261462366
		endloop
	endfacet
	facet normal -0.2775778564203783 -0.8814680535744687 0.38205314310015226
		outer loop
			vertex -4.755282581475769 -8.090169943749473 3.454915028125264
			vertex -2.500000000000001 -9.510565162951535 1.816356320013403
			vertex -0.9549150281252632 -9.510565162951535 2.938926261462366
		endloop
	endfacet
	facet normal -1.154609972117207e-16 -0.8814680535744687 0.47224365588924283
		outer loop
			vertex 1.8163563200134023 -8.090169943749473 5.590169943749475
			vertex -1.8163563200134027 -8.090169943749473 5.5901699437494745
			vertex 0.954915028125263 -9.510565162951535 2.938926261462367
		endloop
	endfacet
	facet normal -2.1961986755228696e-16 -0.8814680535744687 0.4722436558892427
		outer loop
			vertex -1.8163563200134027 -8.090169943749473 5.5901699437494745
			vertex -0.9549150281252632 -9.510565162951535 2.938926261462366
			vertex 0.954915028125263 -9.510565162951535 2.938926261462367
		endloop
	endfacet
	facet normal 0.2775778564203783 -0.8814680535744687 0.3820531431001521
		outer loop
			vertex 4.755282581475768 -8.090169943749473 3.4549150281252645
			vertex 1.8163563200134023 -8.090169943749473 5.590169943749475
			vertex 2.5 -9.510565162951535 1.8163563200134032
		endloop
	endfacet
	facet normal 0.2775778564203785 -0.8814680535744687 0.38205314310015215
		outer loop
			vertex 1.8163563200134023 -8.090169943749473 5.590169943749475
			vertex 0.954915028125263 -9.510565162951535 2.938926261462367
			vertex 2.5 -9.510565162951535 1.8163563200134032
		endloop
	endfacet
	facet normal 0.44913040621251044 -0.8814680535744688 0.14593131515553082
		outer loop
			vertex 5.877852522924733 -8.090169943749473 7.198055546404518e-16
			vertex 4.755282581475768 -8.090169943749473 3.4549150281252645
			vertex 3.090169943749475 -9.510565162951535 3.784241747506545e-16
		endloop
	endfacet
	facet normal 0.4491304062125104 -0.8814680535744687 0.14593131515553084
		outer loop
			vertex 4.755282581475768 -8.090169943749473 3.4549150281252645
			vertex 2.5 -9.510565162951535 1.8163563200134032
			vertex 3.090169943749475 -9.510565162951535 3.784241747506545e-16
		endloop
	endfacet
	facet normal 0.4491304062125105 -0.8814680535744687 -0.1459313151555306
		outer loop
			vertex 4.75528258147577 -8.090169943749473 -3.4549150281252627
			vertex 5.877852522924733 -8.090169943749473 7.198055546404518e-16
			vertex 2.5000000000000013 -9.510565162951535 -1.8163563200134023
		endloop
	endfacet
	facet normal 0.44913040621251044 -0.8814680535744687 -0.1459313151555305
		outer loop
			vertex 5.877852522924733 -8.090169943749473 7.198055546404518e-16
			vertex 3.090169943749475 -9.510565162951535 3.784241747506545e-16
			vertex 2.5000000000000013 -9.510565162951535 -1.8163563200134023
		endloop
	endfacet
	facet normal 0.2775778564203784 -0.8814680535744687 -0.3820531431001522
		outer loop
			vertex 1.8163563200134032 -8.090169943749473 -5.5901699437494745
			vertex 4.75528258147577 -8.090169943749473 -3.4549150281252627
			vertex 0.9549150281252635 -9.510565162951535 -2.938926261462366
		endloop
	endfacet
	facet normal 0.27757785642037835 -0.8814680535744687 -0.3820531431001521
		outer loop
			vertex 4.75528258147577 -8.090169943749473 -3.4549150281252627
			vertex 2.5000000000000013 -9.510565162951535 -1.8163563200134023
			vertex 0.9549150281252635 -9.510565162951535 -2.938926261462366
		endloop
	endfacet
	facet normal 1.1546099721172074e-16 -0.8814680535744688 -0.472243655889243
		outer loop
			vertex -1.8163563200134014 -8.090169943749473 -5.590169943749475
			vertex 1.8163563200134032 -8.090169943749473 -5.5901699437494745
			vertex -0.9549150281252625 -9.510565162951535 -2.938926261462367
		endloop
	endfacet
	facet normal 2.1961986755228701e-16 -0.8814680535744687 -0.4722436558892427
		outer loop
			vertex 1.8163563200134032 -8.090169943749473 -5.5901699437494745
			vertex 0.9549150281252635 -9.510565162951535 -2.938926261462366
			vertex -0.9549150281252625 -9.510565162951535 -2.938926261462367
		endloop
	endfacet
	facet normal -0.27757785642037824 -0.8814680535744687 -0.3820531431001522
		outer loop
			vertex -4.755282581475768 -8.090169943749473 -3.454915028125265
			vertex -1.8163563200134014 -8.090169943749473 -5.590169943749475
			vertex -2.5 -9.510565162951535 -1.8163563200134034
		endloop
	endfacet
	facet normal -0.2775778564203784 -0.8814680535744687 -0.38205314310015226
		outer loop
			vertex -1.8163563200134014 -8.090169943749473 -5.590169943749475
			vertex -0.9549150281252625 -9.510565162951535 -2.938926261462367
			vertex -2.5 -9.510565162951535 -1.8163563200134034
		endloop
	endfacet
	facet normal -0.44913040621251044 -0.8814680535744688 -0.14593131515553082
		outer loop
			vertex -5.877852522924733 -8.090169943749473 -1.4396111092809035e-15
			vertex -4.755282581475768 -8.090169943749473 -3.454915028125265
			vertex -3.090169943749475 -9.510565162951535 -7.56848349501309e-16
		endloop
	endfacet
	facet normal -0.4491304062125104 -0.8814680535744687 -0.14593131515553084
		outer loop
			vertex -4.755282581475768 -8.090169943749473 -3.454915028125265
			vertex -2.5 -9.510565162951535 -1.8163563200134034
			vertex -3.090169943749475 -9.510565162951535 -7.56848349501309e-16
		endloop
	endfacet
	facet normal -0.1562327775860842 -0.9864149361260257 0.05076310663489366
		outer loop
			vertex -2.500000000000001 -9.510565162951535 1.816356320013403
			vertex -3.090169943749475 -9.510565162951535 0
			vertex -1.2246063538223773e-15 -10 0
		endloop
	endfacet
	facet normal -0.09655716670500271 -0.9864149361260257 0.132899538544687
		outer loop
			vertex -0.9549150281252632 -9.510565162951535 2.938926261462366
			vertex -2.500000000000001 -9.510565162951535 1.816356320013403
			vertex -9.90727351661843e-16 -10 7.198055546404517e-16
		endloop
	endfacet
	facet normal -7.639612336677722e-17 -0.9864149361260257 0.16427286381958658
		outer loop
			vertex 0.954915028125263 -9.510565162951535 2.938926261462367
			vertex -0.9549150281252632 -9.510565162951535 2.938926261462366
			vertex -3.7842417475065446e-16 -10 1.1646698526992202e-15
		endloop
	endfacet
	facet normal 0.09655716670500276 -0.9864149361260257 0.13289953854468695
		outer loop
			vertex 2.5 -9.510565162951535 1.8163563200134032
			vertex 0.954915028125263 -9.510565162951535 2.938926261462367
			vertex 3.7842417475065436e-16 -10 1.1646698526992204e-15
		endloop
	endfacet
	facet normal 0.15623277758608417 -0.9864149361260257 0.05076310663489372
		outer loop
			vertex 3.090169943749475 -9.510565162951535 3.784241747506545e-16
			vertex 2.5 -9.510565162951535 1.8163563200134032
			vertex 9.907273516618429e-16 -10 7.198055546404518e-16
		endloop
	endfacet
	facet normal 0.15623277758608417 -0.9864149361260257 -0.05076310663489362
		outer loop
			vertex 2.5000000000000013 -9.510565162951535 -1.8163563200134023
			vertex 3.090169943749475 -9.510565162951535 3.784241747506545e-16
			vertex 1.2246063538223773e-15 -10 1.4996607218221374e-31
		endloop
	endfacet
	facet normal 0.09655716670500275 -0.9864149361260257 -0.13289953854468697
		outer loop
			vertex 0.9549150281252635 -9.510565162951535 -2.938926261462366
			vertex 2.5000000000000013 -9.510565162951535 -1.8163563200134023
			vertex 9.907273516618433e-16 -10 -7.198055546404515e-16
		endloop
	endfacet
	facet normal 7.639612336677723e-17 -0.9864149361260257 -0.16427286381958658
		outer loop
			vertex -0.9549150281252625 -9.510565162951535 -2.938926261462367
			vertex 0.9549150281252635 -9.510565162951535 -2.938926261462366
			vertex 3.7842417475065456e-16 -10 -1.1646698526992202e-15
		endloop
	endfacet
	facet normal -0.09655716670500274 -0.9864149361260257 -0.13289953854468697
		outer loop
			vertex -2.5 -9.510565162951535 -1.8163563200134034
			vertex -0.9549150281252625 -9.510565162951535 -2.938926261462367
			vertex -3.784241747506542e-16 -10 -1.1646698526992204e-15
		endloop
	endfacet
	facet normal -0.15623277758608417 -0.9864149361260257 -0.05076310663489372
		outer loop
			vertex -3.090169943749475 -9.510565162951535 -7.56848349501309e-16
			vertex -2.5 -9.510565162951535 -1.8163563200134034
			vertex -9.907273516618429e-16 -10 -7.19805554640452e-16
		endloop
	endfacet
endsolid exported
